<?xml version="1.0" standalone="no"?>
<!DOCTYPE svg PUBLIC "-//W3C//DTD SVG 1.1//EN" "http://www.w3.org/Graphics/SVG/1.1/DTD/svg11.dtd" >
<svg xmlns="http://www.w3.org/2000/svg">
<metadata>
Created by FontPrep 20130207 at Sat Aug  8 16:17:03 2015
 By Pietro Spagnolo
Copyright (c) 2014 by Luzi Gantenbein. All rights reserved.
</metadata>
<defs>
<font id="80587eeb1b7f21b33106f8a683335bb7" horiz-adv-x='1024' >
  <font-face 
    font-family="BeirutTrial-Poster"
    font-weight="700"
    font-stretch="normal"
    units-per-em="2048"
    panose-1="0 0 8 0 0 0 0 0 0 0"
    ascent="1638"
    descent="-410"
    x-height="975"
    cap-height="1378"
    bbox="-184 -446.035 2212 1511"
    underline-thickness="102"
    underline-position="-102"
    unicode-range="U+0020-007A"
  />
<missing-glyph horiz-adv-x="491" 
 />
    <glyph glyph-name=".notdef" horiz-adv-x="491" 
 />
    <glyph glyph-name=".null" horiz-adv-x="0" 
 />
    <glyph glyph-name="nonmarkingreturn" horiz-adv-x="681" 
 />
    <glyph glyph-name="space" unicode=" " horiz-adv-x="368" 
 />
    <glyph glyph-name="A" unicode="A" horiz-adv-x="1603" 
d="M983 508l-233 526l-230 -526h463zM1128 180l-81 187h-588l-82 -187l213 -180h-590l213 180l459 1030l-76 168h395l613 -1378h-689z" />
    <glyph glyph-name="B" unicode="B" horiz-adv-x="1531" 
d="M623 121h110q150 0 236 81q86 82 86 190t-86 186t-244 77h-102v-534zM623 1262v-465q161 -1 245 73t84 168t-63 159t-166 65h-100zM891 1378q213 0 334 -92t121 -210t-88 -207t-246 -119q206 -12 322 -116t116 -254q0 -148 -142 -264t-399 -116h-868l213 180v1018
l-213 180h850z" />
    <glyph glyph-name="C" unicode="C" horiz-adv-x="1337" 
d="M758 -25q-192 0 -348 83q-158 83 -264 252q-105 169 -105 391q0 221 109 387q108 166 272 242t354 77q303 0 512 -184l-293 -248l-256 338q-186 -55 -283 -197t-98 -313q0 -250 154 -392q154 -143 390 -143t435 164q-63 -225 -225 -341t-354 -116z" />
    <glyph glyph-name="D" unicode="D" horiz-adv-x="1622" 
d="M623 121h77q227 0 355 170q127 170 127 401q0 230 -123 400t-342 170h-94v-1141zM913 1378q319 0 493 -190t175 -459q0 -186 -83 -348q-83 -161 -259 -271t-414 -110h-784l213 180v1018l-213 180h872z" />
    <glyph glyph-name="E" unicode="E" horiz-adv-x="1554" 
d="M948 868q59 0 170 -46t187 -29q-27 -123 -107 -197t-184 -74q-62 0 -162 47t-184 35q82 264 280 264zM623 1262v-1141h397l453 411l-74 -532h-1358l213 180v1018l-213 180h1319l74 -518l-430 402h-381z" />
    <glyph glyph-name="F" unicode="F" horiz-adv-x="1474" 
d="M948 868q59 0 170 -46t187 -29q-27 -123 -107 -197t-184 -74q-62 0 -162 47t-184 35q82 264 280 264zM623 1262v-1082l213 -180h-795l213 180v1018l-213 180h1298l74 -518l-430 402h-360z" />
    <glyph glyph-name="G" unicode="G" horiz-adv-x="1476" 
d="M762 -25q-334 0 -528 215t-193 504q0 221 105 387q104 166 268 246t356 80q295 0 522 -184l-293 -248l-256 338q-134 -39 -255 -151q-142 -131 -142 -385q0 -253 148 -396t364 -143q63 0 127 12v305l-309 -125l59 289h619v-719l-174 147q-166 -172 -418 -172z" />
    <glyph glyph-name="H" unicode="H" horiz-adv-x="1802" 
d="M1180 600h-557v-420l213 -180h-795l213 180v1018l-213 180h795l-213 -180v-457h557v457l-213 180h794l-213 -180v-1018l213 -180h-794l213 180v420z" />
    <glyph glyph-name="I" unicode="I" horiz-adv-x="876" 
d="M41 1378h795l-213 -180v-1018l213 -180h-795l213 180v1018z" />
    <glyph glyph-name="J" unicode="J" horiz-adv-x="770" 
d="M557 215q0 -662 -741 -661q160 96 266 258t106 376v1010l-213 180h795l-213 -180v-983z" />
    <glyph glyph-name="K" unicode="K" horiz-adv-x="1718" 
d="M944 842l508 -537q164 -172 287 -196q-96 -133 -295 -134q-98 0 -186 40t-132 81q-45 41 -102 107l-401 465v-488l213 -180h-795l213 180v1018l-213 180h795l-213 -180v-469l493 469l-213 180h608z" />
    <glyph glyph-name="L" unicode="L" horiz-adv-x="1449" 
d="M623 121h292l453 411l-74 -532h-1253l213 180v1018l-213 180h795l-213 -180v-1077z" />
    <glyph glyph-name="M" unicode="M" horiz-adv-x="2211" 
d="M1655 182l-139 701l-367 -883h-240l-364 891l-139 -711l212 -180h-618l250 211l201 987l-213 180h522l379 -989l409 989h482l-213 -180l206 -1038l189 -160h-772z" />
    <glyph glyph-name="N" unicode="N" horiz-adv-x="1646" 
d="M1434 0h-271l-766 963v-783l213 -180h-569l213 180v965l-186 233h473l749 -944v764l-213 180h570l-213 -180v-1198z" />
    <glyph glyph-name="O" unicode="O" horiz-adv-x="1548" 
d="M737 1303q-272 -1 -272 -551q0 -282 94 -476q94 -196 260 -196q266 0 266 524q0 309 -92 504t-256 195zM781 1407q341 0 534 -196q193 -195 193 -513t-200 -520t-541 -203q-341 0 -534 196q-193 195 -193 513t200 520t541 203z" />
    <glyph glyph-name="P" unicode="P" horiz-adv-x="1470" 
d="M954 1378q232 0 364 -121t132 -295t-148 -312t-409 -138q-137 0 -250 47q182 12 283 130q100 118 100 256t-80 227t-223 90h-100v-1082l213 -180h-795l213 180v1018l-213 180h913z" />
    <glyph glyph-name="Q" unicode="Q" horiz-adv-x="1611" 
d="M737 1303q-272 -1 -272 -551q0 -282 94 -477q94 -196 260 -195q266 0 266 524q0 309 -92 504t-256 195zM1827 -160q121 0 215 47q-33 -153 -157 -243t-303 -90t-325 119q-63 53 -124 109q-150 139 -347 193h-22q-338 0 -531 196q-193 195 -193 513t201 520t541 203
q340 0 533 -196t192 -509q0 -270 -143 -460t-401 -246q190 8 343 -31q152 -39 276 -82t245 -43z" />
    <glyph glyph-name="R" unicode="R" horiz-adv-x="1652" 
d="M623 1262v-484q153 0 235 77t82 175t-62 165t-167 67h-88zM877 1378q233 0 357 -99t124 -241q0 -113 -81 -208t-222 -130l331 -393q141 -166 287 -196q-98 -135 -278 -136q-221 0 -377 195l-395 504v-494l213 -180h-795l213 180v1018l-213 180h836z" />
    <glyph glyph-name="S" unicode="S" horiz-adv-x="1302" 
d="M1241 401q0 -199 -173 -313t-417 -113q-174 -1 -338 61t-272 179l336 285l323 -424q98 10 156 56q57 46 57 114t-24 113q-42 73 -183 144q-44 21 -128 59q-270 120 -358 222q-87 101 -87 234t78 223q144 166 448 166q161 0 309 -50t232 -138l-280 -238l-250 330
q-62 -13 -116 -67t-54 -138t52 -134q30 -30 52 -48t85 -49q64 -31 158 -72q95 -41 149 -70q170 -91 215 -187q30 -62 30 -145z" />
    <glyph glyph-name="T" unicode="T" horiz-adv-x="1503" 
d="M1149 0h-795l213 180v1108l-567 -430l74 520h1356l73 -520l-567 430v-1108z" />
    <glyph glyph-name="U" unicode="U" horiz-adv-x="1630" 
d="M1417 545q0 -273 -175 -421t-419 -149q-156 1 -292 61t-227 189t-91 303v670l-213 180h795l-213 -180v-688q0 -178 94 -272t234 -94t252 102t112 274v678l-213 180h569l-213 -180v-653z" />
    <glyph glyph-name="V" unicode="V" horiz-adv-x="1402" 
d="M1190 1198l-449 -1198h-159l-582 1378h686l-213 -180l295 -723l270 723l-213 180h578z" />
    <glyph glyph-name="W" unicode="W" horiz-adv-x="2056" 
d="M1843 1198l-448 -1198h-86l-332 784l-293 -784h-102l-582 1378h686l-213 -180l264 -639l166 442l-158 377h455l-35 -94l291 -709l232 623l-213 180h581z" />
    <glyph glyph-name="X" unicode="X" horiz-adv-x="1634" 
d="M778 0l213 180l-258 314l-287 -314l213 -180h-587l563 610l-635 768h856l-213 -180l258 -311l279 311l-213 180h587l-557 -608l637 -770h-856z" />
    <glyph glyph-name="Y" unicode="Y" horiz-adv-x="1462" 
d="M967 180l213 -180h-795l213 180v248l-598 950h731l-213 -180l330 -516l321 516l-213 180h506l-495 -786v-412z" />
    <glyph glyph-name="Z" unicode="Z" horiz-adv-x="1339" 
d="M1225 0h-1205l762 1262h-307l-430 -402l74 518h1147l-748 -1257h328l452 411z" />
    <glyph glyph-name="a" unicode="a" horiz-adv-x="1187" 
d="M684 289v252q-158 -14 -237 -81t-78 -149q-1 -53 33 -90t87 -37q103 1 195 105zM41 252q0 164 155 258t488 131v68q0 78 -31 132t-78 70l-245 -268l-226 225q80 62 207 100t258 38q195 0 323 -90t128 -279v-367l188 -159l-524 -166v192q-138 -162 -362 -162
q-110 0 -195 73q-86 73 -86 204z" />
    <glyph glyph-name="b" unicode="b" 
d="M868 416q0 156 -63 246t-151 90t-171 -58v-377q0 -111 47 -171t125 -60t146 87q67 87 67 243zM1169 508q0 -242 -142 -387t-341 -145t-342 145l-197 -166v1200l-188 160l524 166v-619q121 144 288 144t283 -128q115 -128 115 -370z" />
    <glyph glyph-name="c" unicode="c" horiz-adv-x="1032" 
d="M379 582q0 -150 93 -260t261 -111q82 0 158 32t123 89q-33 -172 -156 -264t-285 -93q-235 0 -373 158q-138 159 -138 383t159 356q161 132 395 134q234 0 416 -138l-225 -225l-246 268q-88 -41 -135 -131t-47 -198z" />
    <glyph glyph-name="d" unicode="d" horiz-adv-x="1251" 
d="M748 651q0 113 -54 179t-131 67q-78 0 -138 -84t-60 -246q-1 -163 65 -245t155 -82t163 57v354zM61 480q1 238 139 382q138 143 349 144q113 0 199 -48v197l-189 160l524 166v-1211l189 -159l-524 -166v192q-41 -63 -118 -112t-177 -50q-164 -1 -278 133t-114 372z" />
    <glyph glyph-name="e" unicode="e" horiz-adv-x="1054" 
d="M592 907q-82 1 -135 -71t-66 -177h320q20 248 -119 248zM61 492q1 236 145 375q144 138 372 139q123 0 214 -44t136 -116q92 -147 67 -328h-608q11 -147 111 -228t231 -81q174 0 285 121q-35 -170 -159 -262t-284 -93q-203 1 -357 141t-153 376z" />
    <glyph glyph-name="f" unicode="f" horiz-adv-x="921" 
d="M547 1151v-176h303l-41 -141h-262v-674l188 -160h-712l188 160v674h-191l39 141h152v76q0 397 453 397q262 0 462 -137l-225 -226l-246 269q-47 -16 -77 -70t-31 -133z" />
    <glyph glyph-name="g" unicode="g" horiz-adv-x="1185" 
d="M605 -342q142 0 228 47q85 47 85 121q0 98 -152 98h-371q-86 -38 -86 -110t77 -114t219 -42zM541 905q-119 0 -119 -221q0 -135 44 -211t114 -76q119 0 118 221q0 135 -44 211t-113 76zM489 190h353q166 0 260 -76t94 -206q0 -131 -128 -243q-128 -113 -476 -111
q-258 0 -403 67q-144 68 -144 170q0 63 57 109t181 57q-91 19 -149 83t-58 137q0 151 162 202q-148 94 -148 262t129 266q129 99 321 99t312 -64l315 100l60 -208h-252q53 -76 53 -177q0 -162 -135 -261t-344 -99q-133 0 -238 43q-31 -31 -30 -64q-1 -86 208 -86z" />
    <glyph glyph-name="h" unicode="h" horiz-adv-x="1417" 
d="M1417 0h-1397l189 160v995l-189 160l525 166v-656q51 86 141 133t191 48q145 0 248 -96t104 -271v-479zM893 557q0 119 -48 172t-120 53q-109 0 -180 -75v-560l174 -147l174 147v410z" />
    <glyph glyph-name="i" unicode="i" horiz-adv-x="712" 
d="M0 840l524 166v-846l189 -160h-713l188 160v520zM340 1077q-92 1 -154 63t-63 154q0 92 62 154q63 62 155 63q92 0 154 -62q62 -63 63 -155q-1 -92 -63 -154t-154 -63z" />
    <glyph glyph-name="j" unicode="j" horiz-adv-x="679" 
d="M524 221q0 -170 -44 -296q-44 -125 -110 -195t-167 -112q-99 -42 -187 -53t-196 -11q198 138 286 294q36 66 57 155q19 89 22 147t3 155v375l-188 160l524 166v-785zM340 1077q-92 1 -154 63t-63 154q0 92 62 154q63 62 155 63q92 0 154 -62q62 -63 63 -155
q-1 -92 -63 -154t-154 -63z" />
    <glyph glyph-name="k" unicode="k" horiz-adv-x="1433" 
d="M1208 -25q-201 0 -366 195l-297 340v-363l174 -147h-699l189 160v995l-189 160l525 166v-910l348 244l-188 160h593l-444 -334l311 -332q164 -174 289 -200q-27 -57 -92 -96q-66 -38 -154 -38z" />
    <glyph glyph-name="l" unicode="l" horiz-adv-x="753" 
d="M20 1315l525 166v-1321l188 -160h-713l189 160v995z" />
    <glyph glyph-name="m" unicode="m" horiz-adv-x="1982" 
d="M1458 588q0 94 -40 142t-112 48t-147 -69v-584l148 -125h-635l151 129v459q0 96 -40 143q-41 47 -113 47t-146 -69v-584l148 -125h-672l188 160v538l-188 160l467 148l45 -203q51 98 139 150q89 53 187 53t179 -52t113 -147q48 94 136 146q88 53 208 53t220 -94t100 -267
v-485l188 -160h-675l151 129v459z" />
    <glyph glyph-name="n" unicode="n" horiz-adv-x="1396" 
d="M872 557q0 119 -48 172t-119 53q-109 0 -181 -75v-560l174 -147h-698l188 160v538l-188 160l467 148l45 -203q49 96 143 149q94 54 220 54q125 0 229 -96t104 -271v-479l189 -160h-699l174 147v410z" />
    <glyph glyph-name="o" unicode="o" horiz-adv-x="1210" 
d="M797 422q1 211 -59 345t-156 134q-76 0 -122 -89q-46 -88 -46 -282t58 -322t157 -128q168 0 168 342zM614 1006q244 0 390 -132t145 -376q0 -244 -155 -383q-154 -139 -396 -139t-389 132q-147 134 -147 376t154 382t398 140z" />
    <glyph glyph-name="p" unicode="p" horiz-adv-x="1292" 
d="M717 86q77 0 145 87t68 243t-64 246t-151 90q-88 0 -170 -58v-377q0 -111 47 -171t125 -60zM1231 510q0 -244 -142 -389t-339 -146q-109 0 -205 45v-274l188 -160h-713l189 160v952l-189 160l467 148l39 -181q47 86 130 133t178 48q162 0 280 -126t117 -370z" />
    <glyph glyph-name="q" unicode="q" 
d="M365 567q-1 -163 65 -245t155 -82t163 57v354q0 113 -54 179t-131 67q-78 0 -138 -84t-60 -246zM61 488q-1 246 143 382t322 136t281 -88l276 88v-1127l189 -160l-524 -165v583q-41 -63 -118 -112t-177 -50q-164 -1 -278 133t-114 380z" />
    <glyph glyph-name="r" unicode="r" horiz-adv-x="905" 
d="M678 735q-98 0 -154 -61v-514l189 -160h-713l188 160v538l-188 160l467 148l51 -236q10 80 78 150t182 69q74 0 148 -39l-86 -297q-64 82 -162 82z" />
    <glyph glyph-name="s" unicode="s" horiz-adv-x="1030" 
d="M464 876q-36 -32 -36 -86t44 -94t103 -64t123 -48q217 -80 268 -180q24 -48 23 -111q0 -150 -132 -234t-299 -84q-336 0 -538 183l220 219l270 -297q61 0 119 32q57 32 57 97t-76 108q-58 36 -158 75q-277 110 -334 218q-26 49 -26 113q0 143 128 213t317 70
q264 0 417 -95l-217 -217l-198 217q-39 -3 -75 -35z" />
    <glyph glyph-name="t" unicode="t" horiz-adv-x="854" 
d="M498 -25q-136 1 -246 105t-109 289v465h-225l561 561v-420h316l-41 -141h-275v-383q-1 -123 59 -181t154 -59q94 0 182 51q-37 -137 -138 -212q-102 -75 -238 -75z" />
    <glyph glyph-name="u" unicode="u" horiz-adv-x="1333" 
d="M479 -25q-143 1 -239 93t-97 264v377l-163 139l499 158v-600q0 -104 47 -158t130 -53q83 0 173 73v482l-163 139l499 158v-777l189 -159l-525 -166v186q-145 -156 -350 -156z" />
    <glyph glyph-name="v" unicode="v" horiz-adv-x="1024" 
d="M594 0h-188l-318 719l-170 145l442 142l254 -600l150 382l-219 187h459z" />
    <glyph glyph-name="w" unicode="w" horiz-adv-x="1587" 
d="M1157 0h-184l-195 438l-184 -438h-188l-318 719l-170 145l442 142l254 -603l93 224l-156 348h453l-31 -76l207 -489l147 378l-219 187h459z" />
    <glyph glyph-name="x" unicode="x" horiz-adv-x="1421" 
d="M809 147l-172 177l-207 -181l168 -143h-553l492 426l-537 549h778l-164 -139l168 -174l189 165l-174 148h561l-477 -416l540 -559h-786z" />
    <glyph glyph-name="y" unicode="y" horiz-adv-x="1009" 
d="M772 -414q-66 0 -176 37t-188 37q-80 0 -183 -59l181 401l-318 717l-170 145l442 142l240 -568l156 350l-219 187h469l-547 -1188q111 113 237 113q52 0 138 -24t133 -24t104 29q-18 -129 -95 -212t-204 -83z" />
    <glyph glyph-name="z" unicode="z" horiz-adv-x="1153" 
d="M424 858l-363 -330l62 447h952l-530 -854h188l359 325l-62 -446h-969l547 858h-184z" />
    <glyph glyph-name="NULL" horiz-adv-x="40" 
 />
    </font>
</defs>
</svg>
